<svg width="48" height="42" viewBox="0 0 48 42" fill="none" xmlns="http://www.w3.org/2000/svg">
<path d="M32.7758 22.4465C35.0747 20.8812 36.7527 18.7348 37.5763 16.3058C38.3999 13.8768 38.3282 11.2861 37.3712 8.89396C36.4142 6.50186 34.6195 4.42738 32.2367 2.95913C29.8538 1.49088 27.0015 0.701874 24.0764 0.701874C21.1513 0.701874 18.2989 1.49088 15.9161 2.95913C13.5333 4.42738 11.7386 6.50186 10.7816 8.89396C9.82455 11.2861 9.75287 13.8768 10.5765 16.3058C11.4001 18.7348 13.0781 20.8812 15.377 22.4465C11.4378 23.8123 8.00073 26.0776 5.43219 29.0009C2.86365 31.9242 1.25992 35.3959 0.791976 39.0459C0.758103 39.3124 0.785215 39.5821 0.871761 39.8395C0.958307 40.0969 1.10259 40.337 1.29638 40.5462C1.68775 40.9686 2.257 41.2392 2.8789 41.2984C3.50079 41.3576 4.12439 41.2006 4.61251 40.8619C5.10063 40.5232 5.41328 40.0305 5.48169 39.4923C5.99658 35.5255 8.18222 31.8619 11.621 29.2015C15.0598 26.5411 19.5107 25.0704 24.1233 25.0704C28.7359 25.0704 33.1867 26.5411 36.6255 29.2015C40.0643 31.8619 42.25 35.5255 42.7649 39.4923C42.8286 39.991 43.1036 40.4515 43.5366 40.785C43.9696 41.1186 44.5301 41.3014 45.1097 41.2984H45.3677C45.9823 41.2372 46.5441 40.9682 46.9307 40.5501C47.3172 40.132 47.4971 39.5986 47.4311 39.0662C46.961 35.4058 45.3486 31.9252 42.7669 28.9974C40.1851 26.0696 36.7314 23.805 32.7758 22.4465ZM24.0764 21.0057C22.2213 21.0057 20.4079 20.5297 18.8655 19.6377C17.323 18.7458 16.1208 17.4781 15.4109 15.9949C14.701 14.5117 14.5153 12.8796 14.8772 11.3051C15.2391 9.73052 16.1324 8.28419 17.4441 7.149C18.7559 6.01381 20.4271 5.24073 22.2466 4.92753C24.066 4.61433 25.9519 4.77508 27.6657 5.38944C29.3796 6.0038 30.8445 7.04419 31.8751 8.37903C32.9057 9.71388 33.4558 11.2832 33.4558 12.8886C33.4558 15.0414 32.4676 17.106 30.7086 18.6283C28.9497 20.1505 26.564 21.0057 24.0764 21.0057Z" fill="white"/>
</svg>
