<svg width="42" height="42" viewBox="0 0 42 42" fill="none" xmlns="http://www.w3.org/2000/svg">
<path d="M35.6997 0H8.96535C7.49147 0.000491197 6.06442 0.517668 4.93247 1.46155C3.80053 2.40543 3.03534 3.71626 2.77004 5.16599L0.102906 19.866C-0.063279 20.7741 -0.0278368 21.7076 0.206724 22.6005C0.441284 23.4934 0.869231 24.3239 1.46028 25.0331C2.05133 25.7423 2.79103 26.313 3.62705 26.7047C4.46307 27.0964 5.37497 27.2996 6.29822 27.2999H15.8747L14.6986 30.3029C14.2095 31.6178 14.0465 33.0317 14.2239 34.4233C14.4012 35.8149 14.9135 37.1428 15.7168 38.2929C16.5201 39.4431 17.5904 40.3812 18.836 41.0269C20.0815 41.6725 21.4651 42.0064 22.868 41.9999C23.272 41.9991 23.6672 41.8817 24.0062 41.662C24.3451 41.4422 24.6135 41.1294 24.7791 40.7609L30.7644 27.2999H35.6997C37.3706 27.2999 38.9731 26.6362 40.1547 25.4547C41.3362 24.2732 42 22.6708 42 21V6.29999C42 4.62913 41.3362 3.0267 40.1547 1.84522C38.9731 0.663747 37.3706 0 35.6997 0ZM27.2993 24.7589L21.587 37.6109C21.0025 37.4341 20.4604 37.1395 19.9941 36.7452C19.5278 36.3509 19.1472 35.8654 18.8757 35.3184C18.6042 34.7715 18.4475 34.1748 18.4154 33.565C18.3833 32.9553 18.4763 32.3454 18.6888 31.7729L19.8019 28.7699C20.0391 28.1352 20.1191 27.4525 20.0353 26.7801C19.9514 26.1077 19.7061 25.4656 19.3203 24.9086C18.9344 24.3516 18.4196 23.8961 17.8196 23.5812C17.2196 23.2662 16.5523 23.1011 15.8747 23.0999H6.29822C5.98969 23.1005 5.68484 23.033 5.40535 22.9023C5.12586 22.7716 4.87859 22.581 4.68113 22.344C4.47883 22.1102 4.33063 21.8346 4.24714 21.5369C4.16364 21.2393 4.1469 20.9268 4.19811 20.622L6.86524 5.92199C6.9547 5.43278 7.21488 4.99119 7.59946 4.67585C7.98405 4.36051 8.46807 4.19188 8.96535 4.19999H27.2993V24.7589ZM37.7998 21C37.7998 21.5569 37.5785 22.091 37.1847 22.4849C36.7908 22.8787 36.2567 23.0999 35.6997 23.0999H31.4995V4.19999H35.6997C36.2567 4.19999 36.7908 4.42124 37.1847 4.81507C37.5785 5.20889 37.7998 5.74303 37.7998 6.29999V21Z" fill="white"/>
</svg>
