<svg width="42" height="42" viewBox="0 0 42 42" fill="none" xmlns="http://www.w3.org/2000/svg">
<path d="M0 21C0 21.557 0.276562 22.0911 0.768845 22.4849C1.26113 22.8787 1.92881 23.1 2.625 23.1H22.5488L16.5112 27.909C16.2652 28.1042 16.0699 28.3365 15.9367 28.5924C15.8034 28.8483 15.7348 29.1228 15.7348 29.4C15.7348 29.6772 15.8034 29.9517 15.9367 30.2076C16.0699 30.4635 16.2652 30.6958 16.5112 30.891C16.7553 31.0878 17.0456 31.2441 17.3655 31.3507C17.6854 31.4573 18.0285 31.5122 18.375 31.5122C18.7215 31.5122 19.0646 31.4573 19.3845 31.3507C19.7044 31.2441 19.9947 31.0878 20.2388 30.891L30.7388 22.491C30.9777 22.2913 31.1651 22.0558 31.29 21.798C31.5525 21.2867 31.5525 20.7133 31.29 20.202C31.1651 19.9442 30.9777 19.7087 30.7388 19.509L20.2388 11.109C19.994 10.9132 19.7034 10.7579 19.3837 10.6519C19.0639 10.5459 18.7211 10.4914 18.375 10.4914C18.0289 10.4914 17.6861 10.5459 17.3663 10.6519C17.0466 10.7579 16.756 10.9132 16.5112 11.109C16.2665 11.3048 16.0724 11.5372 15.9399 11.7931C15.8074 12.0489 15.7393 12.3231 15.7393 12.6C15.7393 12.8769 15.8074 13.1511 15.9399 13.4069C16.0724 13.6627 16.2665 13.8952 16.5112 14.091L22.5488 18.9H2.625C1.92881 18.9 1.26113 19.1212 0.768845 19.5151C0.276562 19.9089 0 20.443 0 21ZM34.125 0H7.875C5.78642 0 3.78338 0.663748 2.30653 1.84523C0.829685 3.02671 0 4.62914 0 6.3V12.6C0 13.157 0.276562 13.6911 0.768845 14.0849C1.26113 14.4787 1.92881 14.7 2.625 14.7C3.32119 14.7 3.98887 14.4787 4.48115 14.0849C4.97344 13.6911 5.25 13.157 5.25 12.6V6.3C5.25 5.74305 5.52656 5.2089 6.01885 4.81508C6.51113 4.42125 7.17881 4.2 7.875 4.2H34.125C34.8212 4.2 35.4889 4.42125 35.9812 4.81508C36.4734 5.2089 36.75 5.74305 36.75 6.3V35.7C36.75 36.257 36.4734 36.7911 35.9812 37.1849C35.4889 37.5788 34.8212 37.8 34.125 37.8H7.875C7.17881 37.8 6.51113 37.5788 6.01885 37.1849C5.52656 36.7911 5.25 36.257 5.25 35.7V29.4C5.25 28.843 4.97344 28.3089 4.48115 27.9151C3.98887 27.5212 3.32119 27.3 2.625 27.3C1.92881 27.3 1.26113 27.5212 0.768845 27.9151C0.276562 28.3089 0 28.843 0 29.4V35.7C0 37.3709 0.829685 38.9733 2.30653 40.1548C3.78338 41.3363 5.78642 42 7.875 42H34.125C36.2136 42 38.2166 41.3363 39.6935 40.1548C41.1703 38.9733 42 37.3709 42 35.7V6.3C42 4.62914 41.1703 3.02671 39.6935 1.84523C38.2166 0.663748 36.2136 0 34.125 0Z" fill="white"/>
</svg>
