<svg width="42" height="42" viewBox="0 0 42 42" fill="none" xmlns="http://www.w3.org/2000/svg">
<path d="M32.76 18.48C27.6662 18.48 23.52 14.3338 23.52 9.24C23.52 4.14624 27.6662 0 32.76 0C37.8538 0 42 4.14624 42 9.24C42 14.3338 37.8538 18.48 32.76 18.48ZM32.76 3.36C29.5176 3.36 26.88 5.9976 26.88 9.24C26.88 12.4824 29.5176 15.12 32.76 15.12C36.0024 15.12 38.64 12.4824 38.64 9.24C38.64 5.9976 36.0024 3.36 32.76 3.36Z" fill="white"/>
<path d="M30.24 42H5.04C2.26128 42 0 39.7387 0 36.96V11.76C0 8.98125 2.26128 6.71997 5.04 6.71997H18.48C18.9256 6.71997 19.3529 6.89697 19.6679 7.21203C19.983 7.52709 20.16 7.95441 20.16 8.39997C20.16 8.84553 19.983 9.27285 19.6679 9.58791C19.3529 9.90297 18.9256 10.08 18.48 10.08H5.04C4.59444 10.08 4.16712 10.257 3.85206 10.572C3.537 10.8871 3.36 11.3144 3.36 11.76V36.96C3.36 37.4055 3.537 37.8329 3.85206 38.1479C4.16712 38.463 4.59444 38.64 5.04 38.64H30.24C30.6856 38.64 31.1129 38.463 31.4279 38.1479C31.743 37.8329 31.92 37.4055 31.92 36.96V23.52C31.92 23.0744 32.097 22.6471 32.4121 22.332C32.7271 22.017 33.1544 21.84 33.6 21.84C34.0456 21.84 34.4729 22.017 34.7879 22.332C35.103 22.6471 35.28 23.0744 35.28 23.52V36.96C35.28 39.7387 33.0187 42 30.24 42Z" fill="white"/>
</svg>
