<svg width="42" height="42" viewBox="0 0 42 42" fill="none" xmlns="http://www.w3.org/2000/svg">
<path d="M39.375 18.375H23.625V2.625C23.625 1.92881 23.3484 1.26113 22.8562 0.768845C22.3639 0.276562 21.6962 0 21 0C20.3038 0 19.6361 0.276562 19.1438 0.768845C18.6516 1.26113 18.375 1.92881 18.375 2.625V18.375H2.625C1.92881 18.375 1.26113 18.6516 0.768845 19.1438C0.276562 19.6361 0 20.3038 0 21C0 21.6962 0.276562 22.3639 0.768845 22.8562C1.26113 23.3484 1.92881 23.625 2.625 23.625H18.375V39.375C18.375 40.0712 18.6516 40.7389 19.1438 41.2312C19.6361 41.7234 20.3038 42 21 42C21.6962 42 22.3639 41.7234 22.8562 41.2312C23.3484 40.7389 23.625 40.0712 23.625 39.375V23.625H39.375C40.0712 23.625 40.7389 23.3484 41.2312 22.8562C41.7234 22.3639 42 21.6962 42 21C42 20.3038 41.7234 19.6361 41.2312 19.1438C40.7389 18.6516 40.0712 18.375 39.375 18.375Z" fill="#7D4FFE"/>
</svg>
