<svg width="42" height="42" viewBox="0 0 42 42" fill="none" xmlns="http://www.w3.org/2000/svg">
<path fill-rule="evenodd" clip-rule="evenodd" d="M24.3751 41.7318C22.5536 42.0587 19.8006 42.0958 17.9233 41.7934C17.461 41.7192 16.9806 41.3195 16.8496 40.9009L15.6319 37.0061C15.5009 36.5875 15.0657 36.0709 14.6598 35.8532L10.2479 33.4858C9.84205 33.2681 9.14477 33.1827 8.69221 33.2954L4.53635 34.3307C4.08379 34.4434 3.47085 34.2642 3.16889 33.9317C2.00775 32.6535 0.688479 30.5241 0.0838126 28.9974C-0.0780843 28.5887 0.0536921 28.0021 0.377486 27.6871L3.50247 24.6582C3.82627 24.3439 4.08982 23.7349 4.08982 23.2988V18.5633C4.08982 18.1279 3.82099 17.5238 3.48967 17.2158L0.374474 14.3206C0.0431503 14.0127 -0.0938974 13.431 0.0679995 13.0222C0.212577 12.6575 0.757755 11.5711 1.41287 10.5169C2.0823 9.43958 2.83907 8.43789 3.12521 8.12079C3.42567 7.78689 4.03937 7.59999 4.49494 7.70429L8.9407 8.71929C9.39552 8.82289 10.0951 8.73049 10.5009 8.51279L14.9121 6.1447C15.3179 5.92701 15.7464 5.40831 15.8676 4.98761L16.9911 1.08934C17.1124 0.668641 17.586 0.268244 18.0483 0.195444C19.7464 -0.070554 22.3616 -0.068454 24.1048 0.222744C24.5656 0.299743 25.0385 0.703641 25.1598 1.12434L26.2735 4.98761C26.3947 5.40831 26.8231 5.92701 27.2283 6.1447L31.6401 8.51279C32.046 8.73049 32.7433 8.81589 33.1959 8.70319L37.3517 7.66789C37.8043 7.55519 38.4172 7.73369 38.7192 8.06619C39.93 9.39898 41.2764 11.5991 41.8901 13.1965C42.0475 13.6074 41.9067 14.1904 41.5753 14.4984L38.6514 17.2158C38.3201 17.5238 38.0513 18.1279 38.0513 18.5633V23.2988C38.0513 23.7349 38.3201 24.3383 38.6514 24.6463L41.619 27.405C41.9503 27.713 42.0927 28.2968 41.9368 28.7077C41.7643 29.1626 41.1838 30.34 40.4752 31.4817C39.8058 32.559 39.049 33.5607 38.7629 33.8785C38.4617 34.2117 37.8495 34.3916 37.3969 34.2789L33.4489 33.2954C32.9956 33.1827 32.299 33.2681 31.8932 33.4858L27.4813 35.8532C27.0754 36.0709 26.6477 36.5896 26.5265 37.0103L25.4286 40.8197C25.3073 41.2404 24.8352 41.6492 24.3751 41.7318ZM10.8089 20.9993C10.8089 15.7717 15.3737 11.5277 20.9971 11.5277C26.6198 11.5277 31.1853 15.7717 31.1853 20.9993C31.1853 26.2262 26.6198 30.4702 20.9971 30.4702C15.3737 30.4702 10.8089 26.2262 10.8089 20.9993Z" fill="white"/>
</svg>
